<svg width="180" height="40" viewBox="0 0 180 40" fill="none" xmlns="http://www.w3.org/2000/svg">
  <!-- Logo icon - stylized R with checkmark -->
  <defs>
    <linearGradient id="logoGrad" x1="0" y1="0" x2="36" y2="36" gradientUnits="userSpaceOnUse">
      <stop offset="0%" stop-color="#8B5CF6"/>
      <stop offset="100%" stop-color="#6D28D9"/>
    </linearGradient>
  </defs>
  
  <!-- Background rounded square -->
  <rect x="2" y="4" width="32" height="32" rx="8" fill="url(#logoGrad)"/>
  
  <!-- White R letter -->
  <path d="M11 12H16.5C18.5 12 19.5 13 19.5 14.5C19.5 15.8 18.7 16.7 17.5 17L20 24H17.5L15.5 17.5H13.5V24H11V12ZM13.5 15.5H16C17 15.5 17.5 15 17.5 14.5C17.5 13.8 16.8 13.5 16 13.5H13.5V15.5Z" fill="white"/>
  
  <!-- Checkmark at bottom-right of R -->
  <path d="M27 28L30 31L36 24" stroke="#10B981" stroke-width="2.5" stroke-linecap="round" stroke-linejoin="round"/>
  
  <!-- Brand name -->
  <text x="42" y="26" font-family="system-ui, -apple-system, sans-serif" font-size="16" font-weight="700" fill="#111827" letter-spacing="-0.02em">RedditOps</text>
  <text x="42" y="36" font-family="system-ui, -apple-system, sans-serif" font-size="10" font-weight="600" fill="#8B5CF6" letter-spacing="0.05em">TASKS</text>
</svg>
